<?xml version="1.0" standalone="no"?><!DOCTYPE svg PUBLIC "-//W3C//DTD SVG 1.1//EN" "http://www.w3.org/Graphics/SVG/1.1/DTD/svg11.dtd"><svg t="1539240151403" class="icon" style="" viewBox="0 0 1024 1024" version="1.1" xmlns="http://www.w3.org/2000/svg" p-id="9460" xmlns:xlink="http://www.w3.org/1999/xlink" width="200" height="200"><defs><style type="text/css"></style></defs><path d="M610.881536 579.770368c-121.899008 0-221.073408-99.180544-221.073408-221.079552 0-121.91744 99.176448-221.097984 221.073408-221.097984S831.95904 236.773376 831.95904 358.690816C831.95904 480.58368 732.780544 579.770368 610.881536 579.770368L610.881536 579.770368M610.881536 171.08992c-103.430144 0-187.574272 84.14208-187.574272 187.598848 0 103.450624 84.144128 187.578368 187.574272 187.578368 103.432192 0 187.57632-84.127744 187.57632-187.578368C798.457856 255.232 714.309632 171.08992 610.881536 171.08992L610.881536 171.08992M953.61024 924.086272c-9.248768 0-16.744448-7.507968-16.744448-16.750592 0-179.765248-146.241536-326.012928-325.988352-326.012928S284.8768 727.570432 284.8768 907.33568c0 9.238528-7.50592 16.750592-16.750592 16.750592-9.24672 0-16.750592-7.507968-16.750592-16.750592 0-198.234112 161.271808-359.510016 359.481344-359.510016s359.501824 161.275904 359.501824 359.510016C970.364928 916.578304 962.859008 924.086272 953.61024 924.086272L953.61024 924.086272M402.286592 579.06176c-106.401792 0-192.991232-86.571008-192.991232-192.989184 0-106.422272 86.564864-192.995328 192.991232-192.995328 9.242624 0 16.750592 7.50592 16.750592 16.750592 0 9.24672-7.507968 16.756736-16.750592 16.756736-87.937024 0-159.473664 71.559168-159.473664 159.469568 0 87.916544 71.532544 159.469568 159.473664 159.469568 9.242624 0 16.750592 7.50592 16.750592 16.75264C419.035136 571.521024 411.527168 579.06176 402.286592 579.06176L402.286592 579.06176M106.672128 876.005376c-9.242624 0-16.748544-7.501824-16.748544-16.748544 0-172.2368 140.120064-312.336384 312.358912-312.336384 9.244672 0 16.750592 7.50592 16.750592 16.750592 0 9.24672-7.50592 16.754688-16.750592 16.754688-153.769984 0-278.85568 125.087744-278.85568 278.831104C123.430912 868.507648 115.924992 876.005376 106.672128 876.005376L106.672128 876.005376M106.672128 876.005376 106.672128 876.005376z" p-id="9461" fill="#ffffff"></path></svg>