<?xml version="1.0" standalone="no"?><!DOCTYPE svg PUBLIC "-//W3C//DTD SVG 1.1//EN" "http://www.w3.org/Graphics/SVG/1.1/DTD/svg11.dtd"><svg t="1539240050144" class="icon" style="" viewBox="0 0 1024 1024" version="1.1" xmlns="http://www.w3.org/2000/svg" p-id="6899" xmlns:xlink="http://www.w3.org/1999/xlink" width="200" height="200"><defs><style type="text/css"></style></defs><path d="M897.66463 219.456136l31.428453 40.026803 15.220068-19.469828 15.170652-19.469828c33.652164-43.041167 25.893883-105.255668-16.900205-138.710168l-78.027558-60.979105c-42.991751-33.553332-105.206251-25.745635-138.660753 17.147284l-30.390721 38.89024 46.450858 20.804054 22.879519-29.303573c16.751958-21.44646 47.933332-25.300892 69.330376-8.59835l78.027558 60.979105c21.347628 16.702542 25.202061 47.883917 8.400687 69.330376L897.66463 219.456136zM511.974262 233.341977 511.974262 529.441488 314.311037 529.441488 314.311037 579.054958 511.974262 579.054958 511.974262 579.252621 561.192405 579.252621 561.192405 579.054958 561.390068 579.054958 561.390068 529.441488 561.192405 529.441488 561.192405 233.341977ZM298.152068 38.050711c-33.602748-43.041167-95.866664-50.601786-138.660753-17.147284L81.414342 81.882532c-42.991751 33.553332-50.404122 95.817248-16.900205 138.710168L94.904857 259.482939l31.428453-40.026803L103.453792 190.152562c-16.751958-21.44646-12.996357-52.627834 8.400687-69.330376L189.882037 59.843082c21.347628-16.702542 52.529002-12.84811 69.330376 8.59835l22.879519 29.303573 46.450858-20.804054L313.32272 57.520538 298.152068 38.050711zM67.232006 529.836815c0 149.285151 73.530719 281.3736 186.396421 362.069613l-98.090376 97.645633 34.591064 34.442817 105.799241-105.354499c63.944053 35.628796 137.62302 55.938692 216.045905 55.938692 76.841579 0 149.087488-19.469828 212.142056-53.764397l103.624946 103.180203 34.591064-34.442817-95.570169-95.174843c114.842334-80.399517 189.954359-213.723362 189.954359-364.540402 0-245.645973-199.096284-444.742256-444.742256-444.742256C266.377705 85.094559 67.232006 284.240258 67.232006 529.836815zM907.300711 529.836815c0 218.319031-177.007418 395.326449-395.326449 395.326449-218.319031 0-395.326449-177.007418-395.326449-395.326449 0-218.319031 177.007418-395.326449 395.326449-395.326449C730.293294 134.510364 907.300711 311.517782 907.300711 529.836815z" p-id="6900" fill="#ffffff"></path></svg>