<?xml version="1.0" standalone="no"?><!DOCTYPE svg PUBLIC "-//W3C//DTD SVG 1.1//EN" "http://www.w3.org/Graphics/SVG/1.1/DTD/svg11.dtd"><svg t="1539240241699" class="icon" style="" viewBox="0 0 1024 1024" version="1.1" xmlns="http://www.w3.org/2000/svg" p-id="11093" xmlns:xlink="http://www.w3.org/1999/xlink" width="200" height="200"><defs><style type="text/css"></style></defs><path d="M446.26281 421.202041c-3.501754 0-6.999414-1.338485-9.673313-4.009314l-60.519352-60.518329c-5.343705-5.344728-5.343705-14.007015 0-19.346627 5.344728-5.344728 14.007015-5.344728 19.34765 0l60.518329 60.518329c5.344728 5.340635 5.344728 14.002922 0 19.346627C453.266317 419.863557 449.764564 421.202041 446.26281 421.202041L446.26281 421.202041zM446.26281 421.202041" p-id="11094" fill="#ffffff"></path><path d="M578.217121 421.202041c-3.501754 0-7.002484-1.334391-9.673313-4.009314-5.343705-5.339612-5.343705-14.005992 0-19.346627l60.519352-60.518329c5.344728-5.344728 14.005992-5.344728 19.346627 0 5.344728 5.339612 5.344728 14.001899 0 19.346627l-60.519352 60.518329C585.220628 419.863557 581.718875 421.202041 578.217121 421.202041L578.217121 421.202041zM578.217121 421.202041" p-id="11095" fill="#ffffff"></path><path d="M653.274584 453.448466 369.418654 453.448466c-7.55814 0-13.682627-6.123464-13.682627-13.682627 0-7.55507 6.124488-13.678534 13.682627-13.678534l283.85593 0c7.55507 0 13.678534 6.123464 13.678534 13.678534C666.953118 447.325002 660.829653 453.448466 653.274584 453.448466L653.274584 453.448466zM653.274584 453.448466" p-id="11096" fill="#ffffff"></path><path d="M653.274584 556.095287 369.418654 556.095287c-7.55814 0-13.682627-6.128581-13.682627-13.682627 0-7.55507 6.124488-13.679557 13.682627-13.679557l283.85593 0c7.55507 0 13.678534 6.124488 13.678534 13.679557C666.953118 549.9708 660.829653 556.095287 653.274584 556.095287L653.274584 556.095287zM653.274584 556.095287" p-id="11097" fill="#ffffff"></path><path d="M511.135306 672.995741c-7.55507 0-13.679557-6.127558-13.679557-13.682627L497.455749 441.032692c0-7.554046 6.124488-13.682627 13.679557-13.682627 7.55814 0 13.682627 6.128581 13.682627 13.682627l0 218.280422C524.817933 666.872277 518.693446 672.995741 511.135306 672.995741L511.135306 672.995741zM511.135306 672.995741" p-id="11098" fill="#ffffff"></path><path d="M743.833089 754.724137c-2.753717 0-5.531993-0.826831-7.942903-2.545986-27.77253-19.838837-69.956282-18.691711-70.375837-18.671245-0.151449 0.004093-0.327458 0.008186-0.475837 0.008186L206.733435 733.515093c-26.354228 0-48.39522-18.62008-53.367465-44.150546-15.517415-6.587022-23.384593-17.99177-23.384593-33.920554l0-37.526685c0-11.348466 3.988848-20.398586 11.891841-27.045983-7.902994-6.65149-11.891841-15.697517-11.891841-27.04189l0-37.526685c0-11.347442 3.988848-20.397562 11.891841-27.04496-7.902994-6.65149-11.891841-15.697517-11.891841-27.04189l0-37.526685c0-11.348466 3.988848-20.397562 11.891841-27.045983-7.902994-6.65149-11.891841-15.696494-11.891841-27.040866l0-37.530778c0-16.341177 8.278547-27.92091 24.607444-34.420951 0.056282-0.103354 0.115634-0.224104 0.180102-0.352017 6.65149-23.735587 27.820626-40.192398 51.964512-40.192398l606.804203 0c22.929222 0 42.811038 14.338566 50.689473 36.103266 0.376577 0.599657 0.712221 1.231037 0.995677 1.899256 0.352017 0.822738 0.635473 1.411139 0.843204 1.814322 16.376992 6.491855 24.680099 18.079774 24.680099 34.44858l0 37.530778c0 11.344373-3.989871 20.394493-11.892865 27.04189 7.902994 6.647397 11.892865 15.697517 11.892865 27.045983l0 37.525662c0 11.344373-3.989871 20.394493-11.892865 27.04189 7.902994 6.647397 11.892865 15.697517 11.892865 27.045983l0 37.526685c0 11.344373-3.989871 20.393469-11.892865 27.04189 7.902994 6.647397 11.892865 15.696494 11.892865 27.04496l0 37.526685c0 16.064884-7.999185 27.525913-23.77652 34.085306-4.776793 25.778106-26.989701 44.685735-53.431933 44.685735l-23.879873 0c-7.554046 0-13.678534-6.124488-13.678534-13.679557 0-7.554046 6.124488-13.682627 13.678534-13.682627l23.879873 0c13.887288 0 25.435299-10.604522 26.861788-24.662703 0.180102-1.75497 0.695848-3.461845 1.51961-5.01727 3.425006-6.479575 7.442506-10.140964 13.854543-12.630668 6.918573-2.690272 7.606235-4.732791 7.606235-9.094122l0-37.530778c0-4.360308-0.687662-6.40692-7.614421-9.101285-4.41659-1.719154-9.046027-4.241604-13.019525-11.025101-2.506077-4.273327-2.506077-9.56075-0.004093-13.834076 3.977591-6.78759 8.610098-9.31004 13.027711-11.025101 6.922666-2.694365 7.610328-4.736884 7.610328-9.101285L863.379812 525.603833c0-4.365424-0.687662-6.407943-7.614421-9.102309-4.41659-1.718131-9.046027-4.244674-13.019525-11.024078-2.506077-4.269233-2.506077-9.561773-0.004093-13.8351 3.977591-6.786567 8.610098-9.309016 13.027711-11.024078 6.922666-2.694365 7.610328-4.740978 7.610328-9.102309l0-37.525662c0-4.365424-0.687662-6.407943-7.614421-9.102309-4.41659-1.719154-9.046027-4.244674-13.019525-11.024078-2.506077-4.273327-2.506077-9.561773-0.004093-13.8351 3.977591-6.78759 8.610098-9.31004 13.027711-11.024078 6.922666-2.694365 7.610328-4.740978 7.610328-9.102309l0-37.530778c0-4.360308-0.687662-6.40385-7.614421-9.097192-6.483668-2.52245-10.417257-5.972015-13.8351-12.455683-1.246387-1.471514-2.193968-3.214205-2.741437-5.145184-3.409656-12.0832-13.719466-20.206204-25.651216-20.206204L206.733435 295.467385c-12.260232 0-22.62837 8.410554-25.806759 20.922519-0.195451 0.782829-0.463558 1.546216-0.795109 2.281973-3.721765 8.211009-7.974625 12.503778-15.169491 15.301498-6.927783 2.694365-7.619538 4.736884-7.619538 9.098215l0 37.530778c0 4.360308 0.691755 6.40692 7.619538 9.101285 3.605108 1.39886 8.262174 3.801583 12.251022 9.964956 1.435699 2.215458 2.199085 4.797259 2.199085 7.435343l0 1.079588c0 2.638083-0.763386 5.223978-2.199085 7.438413-3.988848 6.15621-8.641821 8.558933-12.246929 9.961886-6.931876 2.697435-7.623631 4.740978-7.623631 9.105379l0 37.526685c0 4.361331 0.691755 6.407943 7.619538 9.102309 3.605108 1.39886 8.262174 3.800559 12.251022 9.964956 1.435699 2.214435 2.199085 4.796236 2.199085 7.438413l0 1.075495c0 2.638083-0.763386 5.225001-2.199085 7.439436-3.988848 6.15928-8.641821 8.55791-12.246929 9.964956-6.931876 2.694365-7.623631 4.736884-7.623631 9.101285l0 37.526685c0 4.361331 0.691755 6.407943 7.619538 9.102309 3.605108 1.402953 8.262174 3.801583 12.255115 9.964956 1.431605 2.218528 2.194992 4.801353 2.194992 7.439436l0 1.074472c0 2.639107-0.763386 5.225001-2.199085 7.439436-3.988848 6.160303-8.641821 8.55791-12.246929 9.964956-6.931876 2.694365-7.623631 4.736884-7.623631 9.102309l0 37.526685c0 4.364401 0.691755 6.40692 7.619538 9.101285 4.412496 1.719154 9.045003 4.241604 13.026688 11.044544 1.011027 1.727341 1.63115 3.654226 1.818415 5.644557 1.319042 14.20656 12.895705 24.918529 26.926256 24.918529l458.08916 0c4.560876-0.135076 52.496631-0.86674 86.97284 23.760147 6.148024 4.38896 7.571443 12.935614 3.178389 19.083637C752.307088 752.733806 748.098229 754.724137 743.833089 754.724137L743.833089 754.724137zM743.833089 754.724137" p-id="11099" fill="#ffffff"></path></svg>