<?xml version="1.0" standalone="no"?><!DOCTYPE svg PUBLIC "-//W3C//DTD SVG 1.1//EN" "http://www.w3.org/Graphics/SVG/1.1/DTD/svg11.dtd"><svg t="1539237496182" class="icon" style="" viewBox="0 0 1024 1024" version="1.1" xmlns="http://www.w3.org/2000/svg" p-id="3292" xmlns:xlink="http://www.w3.org/1999/xlink" width="200" height="200"><defs><style type="text/css"></style></defs><path d="M893.456828 709.055005" p-id="3293" fill="#ffffff"></path><path d="M491.889987 337.939709" p-id="3294" fill="#ffffff"></path><path d="M568.154951 338.993714" p-id="3295" fill="#ffffff"></path><path d="M752.652965 407.677003c25.295106 0 45.880957-20.585851 45.880957-45.880957s-20.585851-45.880957-45.880957-45.880957-45.880957 20.585851-45.880957 45.880957S727.357859 407.677003 752.652965 407.677003zM752.652965 340.941066c11.502985 0 20.85498 9.351995 20.85498 20.85498s-9.351995 20.85498-20.85498 20.85498-20.85498-9.351995-20.85498-20.85498S741.14998 340.941066 752.652965 340.941066z" p-id="3296" fill="#ffffff"></path><path d="M752.652965 482.755955c-25.295106 0-45.880957 20.585851-45.880957 45.880957s20.585851 45.880957 45.880957 45.880957 45.880957-20.585851 45.880957-45.880957S777.948071 482.755955 752.652965 482.755955zM752.652965 549.491892c-11.502985 0-20.85498-9.351995-20.85498-20.85498 0-11.502985 9.351995-20.85498 20.85498-20.85498s20.85498 9.351995 20.85498 20.85498C773.507946 540.139897 764.15595 549.491892 752.652965 549.491892z" p-id="3297" fill="#ffffff"></path><path d="M844.414879 399.335011c-25.295106 0-45.880957 20.585851-45.880957 45.880957s20.585851 45.880957 45.880957 45.880957 45.880957-20.585851 45.880957-45.880957S869.709985 399.335011 844.414879 399.335011zM844.414879 466.071971c-11.502985 0-20.85498-9.351995-20.85498-20.85498s9.351995-20.85498 20.85498-20.85498 20.85498 9.351995 20.85498 20.85498C865.270882 456.719976 855.917864 466.071971 844.414879 466.071971z" p-id="3298" fill="#ffffff"></path><path d="M660.891052 399.335011c-25.295106 0-45.880957 20.585851-45.880957 45.880957s20.585851 45.880957 45.880957 45.880957 45.880957-20.585851 45.880957-45.880957S686.186158 399.335011 660.891052 399.335011zM660.891052 466.071971c-11.502985 0-20.85498-9.351995-20.85498-20.85498s9.351995-20.85498 20.85498-20.85498 20.85498 9.351995 20.85498 20.85498S672.394037 466.071971 660.891052 466.071971z" p-id="3299" fill="#ffffff"></path><path d="M310.525336 407.677003c25.295106 0 45.880957-20.585851 45.880957-45.880957s-20.585851-45.880957-45.880957-45.880957-45.880957 20.585851-45.880957 45.880957S285.23023 407.677003 310.525336 407.677003zM310.525336 340.941066c11.502985 0 20.85498 9.351995 20.85498 20.85498s-9.351995 20.85498-20.85498 20.85498-20.85498-9.351995-20.85498-20.85498S299.022351 340.941066 310.525336 340.941066z" p-id="3300" fill="#ffffff"></path><path d="M310.525336 482.755955c-25.295106 0-45.880957 20.585851-45.880957 45.880957s20.585851 45.880957 45.880957 45.880957 45.880957-20.585851 45.880957-45.880957S335.820442 482.755955 310.525336 482.755955zM310.525336 549.491892c-11.502985 0-20.85498-9.351995-20.85498-20.85498 0-11.502985 9.351995-20.85498 20.85498-20.85498s20.85498 9.351995 20.85498 20.85498C331.380316 540.139897 322.028321 549.491892 310.525336 549.491892z" p-id="3301" fill="#ffffff"></path><path d="M402.288273 399.335011c-25.295106 0-45.880957 20.585851-45.880957 45.880957s20.585851 45.880957 45.880957 45.880957 45.880957-20.585851 45.880957-45.880957S427.582355 399.335011 402.288273 399.335011zM402.288273 466.071971c-11.502985 0-20.85498-9.351995-20.85498-20.85498s9.351995-20.85498 20.85498-20.85498 20.85498 9.351995 20.85498 20.85498C423.143253 456.719976 413.791258 466.071971 402.288273 466.071971z" p-id="3302" fill="#ffffff"></path><path d="M218.763422 399.335011c-25.295106 0-45.880957 20.585851-45.880957 45.880957s20.585851 45.880957 45.880957 45.880957 45.880957-20.585851 45.880957-45.880957S244.058528 399.335011 218.763422 399.335011zM218.763422 466.071971c-11.502985 0-20.85498-9.351995-20.85498-20.85498s9.351995-20.85498 20.85498-20.85498 20.85498 9.351995 20.85498 20.85498S230.266407 466.071971 218.763422 466.071971z" p-id="3303" fill="#ffffff"></path><path d="M959.908286 473.379401c-12.325723-68.422346-26.296923-145.969513-75.077929-189.333136-58.907645-52.357462-223.931119-71.013357-358.731244-71.013357-102.914928 0-293.909913 14.956643-356.955808 71.013357-46.777373 41.588187-60.145845 116.055203-71.933309 181.748391l-1.36816 7.584746c-17.833157 99.013061-29.947056 227.988528 13.670348 280.166911 13.897521 16.626679 32.748868 24.928762 55.135738 23.909549 55.876612-2.574638 115.835192-51.030234 179.304735-102.33676 62.842257-50.79385 127.827317-103.314017 182.14748-103.314017 63.615876 0 129.619126 54.695716 193.455014 107.591437 59.298548 49.140187 115.306142 95.783507 169.781848 98.292654 1.238201 0.057305 2.476401 0.315178 3.690042 0.315178l0.008186 0c20.651342 0 38.581714-8.616238 51.852972-24.485671C991.737202 697.478342 974.409558 553.85834 959.908286 473.379401zM919.290193 731.875756c-7.013741 8.391111-15.355733 12.292977-26.25599 12.292977-0.709151 0-1.441838-0.016373-2.167363-0.049119-43.314505-1.995447-95.151104-44.944632-150.025898-90.418312-68.381413-56.667627-139.102105-115.26521-214.741829-115.26521-66.116837 0-135.762033 56.292074-203.117071 110.735034-56.495712 45.660946-114.922403 92.87834-159.867034 94.947466-11.844769 0.537236-20.684088-3.226484-27.999704-11.975752-26.777877-32.039717-29.1806-126.564557-6.427386-252.851798l1.359974-7.601118c11.363815-63.323211 23.119557-128.796388 61.269435-162.709779 46.207391-41.082674 203.394387-62.581314 334.780763-62.581314 122.776278 0 284.590664 16.390295 336.565409 62.5895 40.154535 35.68985 53.033867 107.207697 64.397682 170.302711C949.643502 604.619444 946.735265 699.046047 919.290193 731.875756z" p-id="3304" fill="#ffffff"></path></svg>