<?xml version="1.0" standalone="no"?><!DOCTYPE svg PUBLIC "-//W3C//DTD SVG 1.1//EN" "http://www.w3.org/Graphics/SVG/1.1/DTD/svg11.dtd"><svg t="1540974124709" class="icon" style="" viewBox="0 0 1024 1024" version="1.1" xmlns="http://www.w3.org/2000/svg" p-id="3168" xmlns:xlink="http://www.w3.org/1999/xlink" width="200" height="200"><defs><style type="text/css"></style></defs><path d="M125.16 182.048v523.376a68.272 68.272 0 0 0 68.264 68.264h320.536l129.272 129.296c5.672 5.64 16.864 11.128 24.152 9.608 2.32 0.768-2.568 0 0 0 12.576 0 26.664-12.544 26.664-25.128V773.696h136.536c37.68 0 68.264-30.56 68.264-68.264V182.048a68.272 68.272 0 0 0-68.264-68.264H193.424a68.272 68.272 0 0 0-68.264 68.264z m45.512 22.76a45.52 45.52 0 0 1 45.504-45.504h591.648a45.52 45.52 0 0 1 45.504 45.504v477.872a45.52 45.52 0 0 1-45.504 45.504H671.288a22.752 22.752 0 0 0-22.76 22.76v92.976l-108.48-108.504c-1.568-1.544-5.936-6.232-7.784-7.232H216.176a45.52 45.52 0 0 1-45.504-45.504V204.808z m159.28 182.048a45.504 45.504 0 1 0 45.512 45.504 45.496 45.496 0 0 0-45.512-45.504z m182.048 0a45.504 45.504 0 1 0-0.008 91.016A45.504 45.504 0 0 0 512 386.856z m182.04 0a45.504 45.504 0 1 0 0 91.024 45.504 45.504 0 0 0 0-91.024z" p-id="3169" fill="#ffffff"></path></svg>