<?xml version="1.0" standalone="no"?><!DOCTYPE svg PUBLIC "-//W3C//DTD SVG 1.1//EN" "http://www.w3.org/Graphics/SVG/1.1/DTD/svg11.dtd"><svg t="1539240371272" class="icon" style="" viewBox="0 0 1024 1024" version="1.1" xmlns="http://www.w3.org/2000/svg" p-id="11702" xmlns:xlink="http://www.w3.org/1999/xlink" width="200" height="200"><defs><style type="text/css"></style></defs><path d="M846.001 671.875l60.75 0 0 86.813c0 81.75-66.25 148-148.125 148l-86.75 0L671.876 846l86.75 0c48.25 0 87.375-39.125 87.375-87.313L846.001 671.875zM178.063 758.688l0-86.813L117.376 671.875l0 86.813c0 81.75 66.25 148 148 148L352.188 906.688 352.188 846l-86.813 0C217.251 846 178.063 806.875 178.063 758.688zM178.063 265.313c0-48.188 39.188-87.25 87.313-87.25L352.188 178.063l0-60.75-86.813 0c-81.75 0-148 66.25-148 148l0 86.813 60.688 0L178.063 265.313zM117.376 542l789.375 0 0-60.063L117.376 481.937 117.376 542zM758.626 117.313l-86.75 0 0 60.75 86.75 0c48.25 0 87.375 39.063 87.375 87.25l0 86.813 60.75 0 0-86.813C906.751 183.563 840.501 117.313 758.626 117.313z" p-id="11703" fill="#ffffff"></path></svg>