<?xml version="1.0" standalone="no"?><!DOCTYPE svg PUBLIC "-//W3C//DTD SVG 1.1//EN" "http://www.w3.org/Graphics/SVG/1.1/DTD/svg11.dtd"><svg t="1539309777244" class="icon" style="" viewBox="0 0 1024 1024" version="1.1" xmlns="http://www.w3.org/2000/svg" p-id="1858" xmlns:xlink="http://www.w3.org/1999/xlink" width="200" height="200"><defs><style type="text/css"></style></defs><path d="M556.07 960h-88.14a63.79 63.79 0 0 1-59.25-39.8c-5.57-13.63-13.61-34.73-22.29-62.21q-15.35-5.58-30.2-12.52C330.62 858.76 310 868 296.43 873.7a63.81 63.81 0 0 1-70-13.75L164 797.61a63.79 63.79 0 0 1-13.75-70c5.7-13.58 14.94-34.21 28.23-59.78Q171.6 653 166 637.62c-27.47-8.68-48.58-16.72-62.21-22.29A63.79 63.79 0 0 1 64 556.08v-88.16a63.79 63.79 0 0 1 39.8-59.25c13.63-5.57 34.74-13.62 62.22-22.29q5.58-15.36 12.51-30.19C165.24 330.62 156 310 150.3 296.43a63.79 63.79 0 0 1 13.75-70L226.39 164a63.79 63.79 0 0 1 70-13.75c13.58 5.7 34.19 14.94 59.76 28.23Q371 171.61 386.38 166c8.68-27.48 16.72-48.59 22.3-62.22A63.79 63.79 0 0 1 467.93 64h88.15a63.79 63.79 0 0 1 59.25 39.8c5.57 13.63 13.62 34.74 22.29 62.21q15.35 5.58 30.2 12.52C693.38 165.24 714 156 727.57 150.3a63.79 63.79 0 0 1 70 13.75L860 226.39a63.79 63.79 0 0 1 13.75 70c-5.7 13.58-14.94 34.19-28.23 59.76Q852.4 371 858 386.38c27.47 8.68 48.58 16.72 62.21 22.29A63.79 63.79 0 0 1 960 467.93v88.15a63.79 63.79 0 0 1-39.8 59.25c-13.63 5.57-34.73 13.61-62.21 22.29q-5.58 15.35-12.52 30.2C858.76 693.38 868 714 873.7 727.57a63.79 63.79 0 0 1-13.75 70L797.61 860a63.79 63.79 0 0 1-70 13.75c-13.58-5.7-34.19-14.94-59.76-28.23Q653 852.4 637.62 858c-8.68 27.47-16.72 48.58-22.29 62.21A63.79 63.79 0 0 1 556.07 960zM355.69 777.5a32 32 0 0 1 14.91 3.68 302.81 302.81 0 0 0 51.07 21.18 32 32 0 0 1 21.18 21.45c9.75 32.81 19 57.35 25.07 72.16h88.16c6.07-14.84 15.34-39.39 25.08-72.19a32 32 0 0 1 21.18-21.45 302.81 302.81 0 0 0 51.07-21.18 32 32 0 0 1 30.16 0.18c30.1 16.32 54 27.12 68.77 33.32l62.36-62.32c-6.21-14.79-17-38.7-33.33-68.8a32 32 0 0 1-0.18-30.16 302.83 302.83 0 0 0 21.18-51.07 32 32 0 0 1 21.45-21.18c32.81-9.75 57.35-19 72.16-25.07v-88.16c-14.84-6.07-39.38-15.34-72.19-25.08a32 32 0 0 1-21.45-21.18 302.83 302.83 0 0 0-21.18-51.07 32 32 0 0 1 0.18-30.16c16.32-30.1 27.12-54 33.31-68.77l-62.29-62.33c-14.79 6.2-38.7 17-68.8 33.33a32 32 0 0 1-30.16 0.18 302.81 302.81 0 0 0-51.07-21.18 32 32 0 0 1-21.18-21.45c-9.74-32.8-19-57.35-25.07-72.16h-88.16c-6 14.78-15.26 39.19-25 71.79a32 32 0 0 1-21.3 21.85 302.81 302.81 0 0 0-51.07 21.17 32 32 0 0 1-30.16-0.18c-30.1-16.32-54-27.12-68.77-33.31l-62.32 62.3c6.2 14.79 17 38.7 33.33 68.8a32 32 0 0 1 0.18 30.16 302.81 302.81 0 0 0-21.17 51.07 32 32 0 0 1-21.45 21.18c-32.81 9.74-57.35 19-72.17 25.07v88.16c14.74 6 39 15.21 71.5 24.87a32.07 32.07 0 0 1 22.39 22.2 303.54 303.54 0 0 0 20.59 49.62 32 32 0 0 1-0.3 31.59c-16.07 29.71-26.73 53.33-32.87 68l62.33 62.37c14.79-6.2 38.7-17 68.8-33.33a32 32 0 0 1 15.23-3.9z" p-id="1859" fill="#ffffff"></path><path d="M556.07 960h-88.14a63.79 63.79 0 0 1-59.25-39.8c-5.57-13.63-13.61-34.73-22.29-62.21q-15.35-5.58-30.2-12.52C330.62 858.76 310 868 296.43 873.7a63.81 63.81 0 0 1-70-13.75L164 797.61a63.79 63.79 0 0 1-13.75-70c5.7-13.58 14.94-34.21 28.23-59.78Q171.6 653 166 637.62c-27.47-8.68-48.58-16.72-62.21-22.29A63.79 63.79 0 0 1 64 556.08v-88.16a63.79 63.79 0 0 1 39.8-59.25c13.63-5.57 34.74-13.62 62.22-22.29q5.58-15.36 12.51-30.19C165.24 330.62 156 310 150.3 296.43a63.79 63.79 0 0 1 13.75-70L226.39 164a63.79 63.79 0 0 1 70-13.75c13.58 5.7 34.19 14.94 59.76 28.23Q371 171.61 386.38 166c8.68-27.48 16.72-48.59 22.3-62.22A63.79 63.79 0 0 1 467.93 64h88.15a63.79 63.79 0 0 1 59.25 39.8c5.57 13.63 13.62 34.74 22.29 62.21q15.35 5.58 30.2 12.52C693.38 165.24 714 156 727.57 150.3a63.79 63.79 0 0 1 70 13.75L860 226.39a63.79 63.79 0 0 1 13.75 70c-5.7 13.58-14.94 34.19-28.23 59.76Q852.4 371 858 386.38c27.47 8.68 48.58 16.72 62.21 22.29A63.79 63.79 0 0 1 960 467.93v88.15a63.79 63.79 0 0 1-39.8 59.25c-13.63 5.57-34.73 13.61-62.21 22.29q-5.58 15.35-12.52 30.2C858.76 693.38 868 714 873.7 727.57a63.79 63.79 0 0 1-13.75 70L797.61 860a63.79 63.79 0 0 1-70 13.75c-13.58-5.7-34.19-14.94-59.76-28.23Q653 852.4 637.62 858c-8.68 27.47-16.72 48.58-22.29 62.21A63.79 63.79 0 0 1 556.07 960zM355.69 777.5a32 32 0 0 1 14.91 3.68 302.81 302.81 0 0 0 51.07 21.18 32 32 0 0 1 21.18 21.45c9.75 32.81 19 57.35 25.07 72.16h88.16c6.07-14.84 15.34-39.39 25.08-72.19a32 32 0 0 1 21.18-21.45 302.81 302.81 0 0 0 51.07-21.18 32 32 0 0 1 30.16 0.18c30.1 16.32 54 27.12 68.77 33.32l62.36-62.32c-6.21-14.79-17-38.7-33.33-68.8a32 32 0 0 1-0.18-30.16 302.83 302.83 0 0 0 21.18-51.07 32 32 0 0 1 21.45-21.18c32.81-9.75 57.35-19 72.16-25.07v-88.16c-14.84-6.07-39.38-15.34-72.19-25.08a32 32 0 0 1-21.45-21.18 302.83 302.83 0 0 0-21.18-51.07 32 32 0 0 1 0.18-30.16c16.32-30.1 27.12-54 33.31-68.77l-62.29-62.33c-14.79 6.2-38.7 17-68.8 33.33a32 32 0 0 1-30.16 0.18 302.81 302.81 0 0 0-51.07-21.18 32 32 0 0 1-21.18-21.45c-9.74-32.8-19-57.35-25.07-72.16h-88.16c-6 14.78-15.26 39.19-25 71.79a32 32 0 0 1-21.3 21.85 302.81 302.81 0 0 0-51.07 21.17 32 32 0 0 1-30.16-0.18c-30.1-16.32-54-27.12-68.77-33.31l-62.32 62.3c6.2 14.79 17 38.7 33.33 68.8a32 32 0 0 1 0.18 30.16 302.81 302.81 0 0 0-21.17 51.07 32 32 0 0 1-21.45 21.18c-32.81 9.74-57.35 19-72.17 25.07v88.16c14.74 6 39 15.21 71.5 24.87a32.07 32.07 0 0 1 22.39 22.2 303.54 303.54 0 0 0 20.59 49.62 32 32 0 0 1-0.3 31.59c-16.07 29.71-26.73 53.33-32.87 68l62.33 62.37c14.79-6.2 38.7-17 68.8-33.33a32 32 0 0 1 15.23-3.9z" p-id="1860" fill="#ffffff"></path><path d="M512 704c-105.87 0-192-86.13-192-192s86.13-192 192-192 192 86.13 192 192-86.13 192-192 192z m0-320a128 128 0 1 0 128 128 128.15 128.15 0 0 0-128-128z" p-id="1861" fill="#ffffff"></path></svg>