<?xml version="1.0" standalone="no"?><!DOCTYPE svg PUBLIC "-//W3C//DTD SVG 1.1//EN" "http://www.w3.org/Graphics/SVG/1.1/DTD/svg11.dtd"><svg t="1539237401577" class="icon" style="" viewBox="0 0 1024 1024" version="1.1" xmlns="http://www.w3.org/2000/svg" p-id="2385" xmlns:xlink="http://www.w3.org/1999/xlink" width="200" height="200"><defs><style type="text/css"></style></defs><path d="M508.303818 686.562734l44.257993 0L552.561811 393.871579l-44.257993 0L508.303818 686.562734zM512 77.958536c-239.714594 0-434.041464 194.32687-434.041464 434.041464S272.285406 946.041464 512 946.041464 946.041464 751.71357 946.041464 512 751.71357 77.958536 512 77.958536zM512 900.352889c-214.479863 0-388.352889-173.872003-388.352889-388.352889s173.872003-388.352889 388.352889-388.352889S900.352889 297.519114 900.352889 512 726.479863 900.352889 512 900.352889zM334.915839 648.01479l-1.430582 0c-1.919722-3.792373-33.330106-88.521103-94.233198-254.142188l-48.543599 0 117.077485 292.690132 49.974182 0 117.077485-292.690132-49.974182 0C365.832989 558.556339 335.851141 643.263579 334.915839 648.01479zM738.802516 393.871579 614.5844 393.871579l0 292.690132 45.688575 0L660.272975 576.62588l74.243935 0c71.38891-0.937348 107.551528-32.346709 108.510366-94.233198C839.21239 426.242847 804.479331 396.727627 738.802516 393.871579zM728.805838 540.92989l-68.532863 0 0-111.366414 68.532863 0c42.833551 0.958838 65.188698 19.051915 67.107397 54.255695C794.953374 520.940626 772.575714 539.993564 728.805838 540.92989z" p-id="2386" fill="#ffffff"></path></svg>